Coordinates
version=1
nRows=19
nColumns=24
inDegrees=yes

Units are S.I. units (second, meters, Newtons, ...)
Angles are in degrees.

endheader
time	pelvis_tilt	pelvis_list	pelvis_rotation	pelvis_tx	pelvis_ty	pelvis_tz	hip_flexion_r	hip_adduction_r	hip_rotation_r	knee_angle_r	ankle_angle_r	subtalar_angle_r	mtp_angle_r	hip_flexion_l	hip_adduction_l	hip_rotation_l	knee_angle_l	ankle_angle_l	subtalar_angle_l	mtp_angle_l	lumbar_extension	lumbar_bending	lumbar_rotation
      1.32550000	      1.52035749	      5.17363522	     -3.70226048	      0.20903768	      1.06699691	      0.32727286	     14.01852698	     -7.19523330	     -1.38125832	    -67.01761561	     -5.56588873	    -11.07653243	     10.66583681	      5.41089992	     10.54501132	     -2.67820278	     -3.83419489	     -4.89045733	    -11.58121765	      3.07376661	      3.05146937	     -2.78761733	      1.19169337
      1.32966667	      1.51026607	      5.18878544	     -3.68403492	      0.21404542	      1.06751241	      0.32720142	     14.66084401	     -7.14461786	     -1.18612345	    -67.03184062	     -4.89745486	    -11.32077819	     10.58447294	      5.02849764	     10.58761318	     -2.64384478	     -3.66405156	     -4.72614534	    -11.53888490	      3.03211198	      3.03249285	     -2.84490565	      1.11337646
      1.33383333	      1.52889427	      5.23457378	     -3.68732801	      0.21899991	      1.06802818	      0.32699753	     15.27668823	     -7.14298129	     -0.97386237	    -66.98894993	     -4.39207609	    -11.49866043	     10.52992313	      4.60577533	     10.68131963	     -2.54329078	     -3.45713219	     -4.60928146	    -11.46673095	      3.00472725	      2.99988336	     -2.83774828	      1.04549521
      1.33800000	      1.52369854	      5.23689930	     -3.65319377	      0.22400565	      1.06854996	      0.32693630	     15.87496720	     -7.07172486	     -0.80023924	    -66.86996401	     -3.68605079	    -11.67322434	     10.44671411	      4.20904583	     10.70767037	     -2.51836433	     -3.26856212	     -4.43226096	    -11.42269487	      2.95941652	      2.97518416	     -2.89519425	      0.96424710
      1.34216667	      1.53744060	      5.25726322	     -3.63768532	      0.22897869	      1.06906401	      0.32682179	     16.45065630	     -7.02262439	     -0.60506288	    -66.69619504	     -3.09342849	    -11.77257034	     10.36198914	      3.78253666	     10.76165595	     -2.44859273	     -3.05491539	     -4.28705593	    -11.35230096	      2.91199938	      2.94080995	     -2.91866191	      0.87927294
      1.34633333	      1.53911831	      5.25570819	     -3.61812296	      0.23395854	      1.06957165	      0.32675113	     17.01395055	     -6.93994979	     -0.40017607	    -66.41819745	     -2.80827450	    -11.83777806	     10.33452385	      3.35561305	     10.78416610	     -2.32262828	     -2.82266355	     -4.22596511	    -11.28387931	      2.89747306	      2.87992285	     -2.89877599	      0.83314431
      1.35050000	      1.58562228	      5.30510578	     -3.61939929	      0.23889730	      1.07006894	      0.32654474	     17.53972931	     -6.93032651	     -0.20868708	    -66.16084810	     -2.09367557	    -11.96244920	     10.27636432	      2.88288396	     10.88579565	     -2.23771482	     -2.56828523	     -4.05296383	    -11.23048316	      2.86317577	      2.87669024	     -2.91617789	      0.75502285
      1.35466667	      1.59509106	      5.31157528	     -3.58639123	      0.24388122	      1.07054767	      0.32645280	     18.06038965	     -6.85516508	     -0.02494890	    -65.79629233	     -1.50665572	    -11.96393517	     10.20983749	      2.44249001	     10.91988266	     -2.14926946	     -2.32855430	     -3.91743569	    -11.16704355	      2.82133489	      2.82922793	     -2.93774345	      0.66962033
      1.35883333	      1.60758482	      5.32069062	     -3.55631465	      0.24886481	      1.07101105	      0.32635449	     18.56276845	     -6.78074749	      0.15564961	    -65.36820606	     -1.04219484	    -11.95429159	     10.15433016	      1.99200596	     10.95884798	     -2.05091061	     -2.06663290	     -3.81003792	    -11.10284381	      2.78558001	      2.79742079	     -2.94448672	      0.59455055
      1.36300000	      1.63315697	      5.31672549	     -3.48151145	      0.25380982	      1.07149129	      0.32627107	     19.02051729	     -6.69588951	      0.29461261	    -64.88500562	     -0.38967518	    -11.84918997	     10.04775891	      1.53621260	     10.97890158	     -1.99363928	     -1.83290029	     -3.65787533	    -11.05391560	      2.71214883	      2.70570320	     -2.99038137	      0.47161110
      1.36716667	      1.65364705	      5.32739926	     -3.44640098	      0.25880020	      1.07192691	      0.32618351	     19.47710583	     -6.62013660	      0.47267229	    -64.34529623	      0.07234502	    -11.77538829	      9.94569991	      1.06443556	     11.01907239	     -1.88370841	     -1.55255287	     -3.55265780	    -10.99442635	      2.64085524	      2.67486109	     -3.00960054	      0.36545257
      1.37133333	      1.62365791	      5.33900078	     -3.39761147	      0.26375967	      1.07226907	      0.32614146	     19.97299124	     -6.53417954	      0.65134721	    -63.73263525	      0.25175224	    -11.78801042	      9.92329286	      0.65299061	     11.04905967	     -1.78248301	     -1.28103224	     -3.51679556	    -10.94002240	      2.62622364	      2.61577526	     -3.03033293	      0.33310160
      1.37550000	      1.67264706	      5.37497389	     -3.38757952	      0.26874292	      1.07266226	      0.32603890	     20.37781738	     -6.48404063	      0.84178193	    -63.10399647	      0.71988524	    -11.80236933	      9.87218276	      0.13348382	     11.12373068	     -1.63858438	     -0.95187553	     -3.40921835	    -10.88168632	      2.58928163	      2.65436039	     -3.03719294	      0.25960729
      1.37966667	      1.62871485	      5.37798150	     -3.31100598	      0.27369315	      1.07293895	      0.32602245	     20.84448802	     -6.38706789	      0.99324928	    -62.38163247	      0.93954031	    -11.80054954	      9.85027301	     -0.26145229	     11.13905835	     -1.57448900	     -0.69289108	     -3.35747586	    -10.85170411	      2.57334550	      2.57149882	     -3.08362917	      0.22408125
      1.38383333	      1.69696983	      5.38940094	     -3.24841944	      0.27867576	      1.07333966	      0.32591099	     21.16729566	     -6.31937464	      1.12624523	    -61.63918687	      1.61021452	    -11.69163177	      9.74599993	     -0.80366062	     11.18248798	     -1.44758988	     -0.37630389	     -3.19489303	    -10.82698026	      2.48949779	      2.52866301	     -3.09003161	      0.05680536
      1.38800000	      1.65676916	      5.42252465	     -3.20026125	      0.28362364	      1.07352926	      0.32591033	     21.60907632	     -6.24794570	      1.30573870	    -60.82974646	      1.73791582	    -11.68529809	      9.72282440	     -1.21762723	     11.23165857	     -1.35133176	     -0.07471144	     -3.16955268	    -10.77228967	      2.47252198	      2.47905774	     -3.14940673	      0.02342718
      1.39216667	      1.64355759	      5.45261945	     -3.16090674	      0.28859182	      1.07372454	      0.32591419	     22.00043746	     -6.17290415	      1.48502809	    -59.96941750	      1.93286480	    -11.69854535	      9.69561003	     -1.67020871	     11.28129771	     -1.24689185	      0.25046824	     -3.11957675	    -10.72399084	      2.45187530	      2.48513693	     -3.20185579	     -0.02063872
      1.39633333	      1.68852568	      5.48680307	     -3.12669948	      0.29362892	      1.07397939	      0.32582531	     22.30260132	     -6.12103722	      1.63586852	    -59.07009312	      2.22236317	    -11.72100935	      9.64262879	     -2.20279802	     11.35067151	     -1.12598078	      0.59676582	     -3.03474345	    -10.68073492	      2.40896481	      2.52768171	     -3.22787684	     -0.11605932
      1.40050000	      1.68682031	      5.51472593	     -3.07203968	      0.29860457	      1.07413127	      0.32580645	     22.63692251	     -6.05116706	      1.78679479	    -58.11227866	      2.42066305	    -11.74693997	      9.58962134	     -2.67114771	     11.39810591	     -1.02385776	      0.92012505	     -2.96860562	    -10.64326748	      2.36546774	      2.49558518	     -3.27628052	     -0.20999849
